<svg xmlns="http://www.w3.org/2000/svg" width="256" height="256" viewBox="0 0 256 256">
  <defs>
    <linearGradient id="hullGrad" x1="0" y1="0" x2="0" y2="1">
      <stop offset="0%" stop-color="#c6f6d5"/>
      <stop offset="100%" stop-color="#22543d"/>
    </linearGradient>
  </defs>
  <rect width="256" height="256" fill="none"/>

  <!-- Floats / pontoons -->
  <rect x="58" y="92" width="26" height="98" rx="10" fill="#2d3748"/>
  <rect x="172" y="92" width="26" height="98" rx="10" fill="#2d3748"/>

  <!-- Support arms -->
  <line x1="84" y1="106" x2="112" y2="116" stroke="#4a5568" stroke-width="6"/>
  <line x1="172" y1="106" x2="144" y2="116" stroke="#4a5568" stroke-width="6"/>
  <line x1="84" y1="176" x2="112" y2="164" stroke="#4a5568" stroke-width="6"/>
  <line x1="172" y1="176" x2="144" y2="164" stroke="#4a5568" stroke-width="6"/>

  <!-- Rotors -->
  <circle cx="82" cy="78" r="18" fill="#1a202c"/>
  <circle cx="174" cy="78" r="18" fill="#1a202c"/>
  <circle cx="82" cy="78" r="10" fill="#68d391"/>
  <circle cx="174" cy="78" r="10" fill="#68d391"/>

  <!-- Main hull -->
  <rect x="92" y="102" width="72" height="68" rx="18" fill="url(#hullGrad)" stroke="#1c4532" stroke-width="5"/>
  <rect x="106" y="116" width="44" height="16" rx="8" fill="#e6fffa" opacity="0.6"/>

  <!-- Sonar/camera pod -->
  <circle cx="128" cy="176" r="10" fill="#0f172a"/>
  <circle cx="128" cy="176" r="4" fill="#9ae6b4"/>
</svg>
