<?xml version="1.0" encoding="utf-8" ?><svg xmlns="http://www.w3.org/2000/svg" xmlns:xlink="http://www.w3.org/1999/xlink" width="256" height="256" viewBox="0 0 256 256"><path fill="#1F4634" transform="scale(0.25 0.25)" d="M345.47 403.411C374.538 381.527 386.017 384.548 419.831 384.526L497.007 384.532L588.875 384.55C624.344 384.521 647.467 379.985 677.592 403.186C682.346 408.343 687.379 413.124 691.623 418.783C692.118 419.443 691.998 419.275 692.686 419.801C695.113 422.396 697.181 426.258 698.882 429.391C708.644 447.369 708.288 462.67 708.327 482.3L708.353 510.973C717.829 510.889 729.89 508.68 736.841 515.806C741.269 520.345 743.873 525.64 743.086 531.98C741.488 544.837 745.018 567.781 742.412 579.377C741.66 582.799 739.957 585.938 737.5 588.436C730.73 595.304 722.423 594.768 713.631 594.192C711.775 594.231 709.986 594.008 708.574 595.1C707.46 597.047 708.073 600.353 707.934 602.863C706.052 609.328 705.974 615.332 703.647 621.987C702.678 628.008 697.867 636.43 694.133 641.252L694.471 641.927C689.353 646.745 680.782 658.59 675.408 661.545C671.338 665.278 667.983 666.87 663.256 669.553C643.099 680.996 619.362 679.395 596.628 679.107C595.032 694.285 586.446 706.978 570.256 709.9C561.987 711.392 553.013 709.15 546.281 704.032C537.208 697.133 534.993 690.475 533.41 679.42C518.962 679.528 504.515 679.533 490.067 679.435C489.194 686.072 488.638 689.879 484.888 695.549C480.082 702.817 471.911 708.513 463.273 710.006C455.089 711.381 446.698 709.369 440.026 704.433C430.973 697.671 428.409 689.949 426.937 679.349C404.711 680.134 380.159 680.404 360.662 669.566C339.968 658.062 327.172 644.263 320.148 621.766C317.132 612.001 317.522 611.266 315.683 601.142C315.55 598.969 315.558 596.41 315.506 594.201C305.62 593.937 294.174 596.635 286.818 589.295C282.641 585.128 280.454 581.804 280.533 575.401C280.74 558.683 279.746 540.742 281.165 524.16C281.953 520.979 284.089 518.348 286.198 515.968C292.708 508.626 305.762 510.774 314.938 510.614C316.91 478.712 308.37 448.484 330.399 420.043C332.014 418.999 342.314 406.358 345.47 403.411Z"/><path fill="#1C222C" transform="scale(0.25 0.25)" d="M708.353 510.973C717.829 510.889 729.89 508.68 736.841 515.806C741.269 520.345 743.873 525.64 743.086 531.98C741.488 544.837 745.018 567.781 742.412 579.377C741.66 582.799 739.957 585.938 737.5 588.436C730.73 595.304 722.423 594.768 713.631 594.192C711.88 594.08 710.451 593.931 708.711 593.701C707.692 592.052 707.801 577.006 708.421 574.886C708.806 560.781 708.309 544.681 708.37 530.28C713.315 530.315 718.077 530.408 723.02 530.051C719.868 529.632 711.829 529.843 708.311 529.843C708.436 523.409 708.509 517.403 708.353 510.973Z"/><path fill="#6AA081" transform="scale(0.25 0.25)" d="M708.37 530.28C713.315 530.315 718.077 530.408 723.02 530.051C723.041 544.946 722.918 560.085 723.11 574.959C718.32 574.954 713.181 575.045 708.421 574.886C708.806 560.781 708.309 544.681 708.37 530.28Z"/><path fill="#1C222C" transform="scale(0.25 0.25)" d="M315.506 594.201C305.62 593.937 294.174 596.635 286.818 589.295C282.641 585.128 280.454 581.804 280.533 575.401C280.74 558.683 279.746 540.742 281.165 524.16C281.953 520.979 284.089 518.348 286.198 515.968C292.708 508.626 305.762 510.774 314.938 510.614C315.009 517.034 315.039 523.456 315.028 529.877C310.987 529.882 303.846 529.686 300.096 530.249L300.544 574.912C305.416 574.951 310.288 574.93 315.16 574.848C316.021 577.493 315.258 590.426 315.506 594.201Z"/><path fill="#6AA081" transform="scale(0.25 0.25)" d="M300.096 530.249C304.998 530.572 310.109 530.464 315.037 530.447C315.15 542.212 316.002 564.032 315.16 574.848C310.288 574.93 305.416 574.951 300.544 574.912L300.096 530.249Z"/><defs><linearGradient id="gradient_0" gradientUnits="userSpaceOnUse" x1="511.30017" y1="555.78241" x2="511.97452" y2="402.96375"><stop offset="0" stop-color="#73A287"/><stop offset="1" stop-color="#C2F0D2"/></linearGradient></defs><path fill="url(#gradient_0)" transform="scale(0.25 0.25)" d="M359.079 415.884C361.771 413.642 364.683 411.679 367.77 410.025C375.285 405.962 383.535 403.441 392.037 402.61C402.652 401.628 418.562 402.086 429.612 402.108L493.322 402.193L581.317 402.183C599.347 402.179 626.826 400.286 643.307 405.153C656.972 407.804 671.198 419.625 678.859 430.944C683.542 437.78 686.851 445.462 688.601 453.561C691.331 466.448 690.453 478.693 690.77 491.64C691.292 512.981 690.012 534.845 690.72 556.104L332.965 556.014L332.707 507.347C332.495 477.798 328.539 444.452 351.84 422.281C353.87 420.35 356.728 417.371 359.079 415.884Z"/><path fill="#C5E7D3" transform="scale(0.25 0.25)" d="M359.079 415.884C361.771 413.642 364.683 411.679 367.77 410.025C375.285 405.962 383.535 403.441 392.037 402.61C402.652 401.628 418.562 402.086 429.612 402.108L493.322 402.193L581.317 402.183C599.347 402.179 626.826 400.286 643.307 405.153C638.634 406.009 633.71 402.236 631.593 404.358L633.181 406.016C630.45 408.302 629.152 410.669 625.66 411.076C617.241 412.055 608.757 410.426 600.43 410.387L539.864 410.479C536.182 410.475 530.829 410.32 527.137 410.668C519.594 411.38 511.904 412.238 504.284 412.57C504.284 412.57 502.361 411.634 502.361 411.634C497.566 411.941 492.652 412.164 487.884 411.969C479.585 411.631 471.296 410.936 463.012 410.828C455.611 410.732 447.886 411.8 440.537 411.936C432.623 412.082 424.37 411.589 416.433 411.713C410.671 411.888 404.925 412.267 399.158 412.354C393.509 412.439 388.196 410.596 383.23 408.037C381.178 406.98 380.624 405.976 378.359 406.373L377.591 407.818C375.227 408.22 373.514 407.94 371.752 409.129C371.933 409.72 372.077 410.286 372.193 410.896C369.593 413.818 362.869 416.89 359.079 415.884Z"/><path fill="#C5E7D3" transform="scale(0.25 0.25)" d="M429.936 442.721C436.622 442.105 452.046 442.522 459.176 442.511L516.697 442.485L567.202 442.477C576.715 442.478 588.197 442.066 597.492 443.089C632.216 446.91 632.084 498.143 595.076 500.889L481.621 501L445.963 500.999C439.16 500.994 432.801 501.144 425.828 500.563C402.042 498.58 392.719 468.903 407.702 451.981C413.621 445.297 421.031 443.104 429.936 442.721Z"/><defs><linearGradient id="gradient_1" gradientUnits="userSpaceOnUse" x1="511.20908" y1="660.89447" x2="511.54654" y2="574.30835"><stop offset="0" stop-color="#2B5C44"/><stop offset="1" stop-color="#639279"/></linearGradient></defs><path fill="url(#gradient_1)" transform="scale(0.25 0.25)" d="M333.356 574.642C346.294 574.001 361.658 574.382 374.781 574.399L445.84 574.474C463.564 574.473 687.167 573.647 690.275 574.887L690.487 576.06C690.631 590.045 691.489 603.226 686.799 616.677C678.19 641.362 654.634 660.255 628.214 661.219C614.972 661.702 601.831 661.508 588.59 661.522L511.791 661.5L435.74 661.499C420.657 661.505 405.304 661.732 390.256 661.007C386.367 660.898 382.388 659.634 378.808 658.33C345.82 646.321 330.483 617.718 332.881 583.567C333.048 581.185 332.558 576.803 333.356 574.642Z"/><path fill="#6AA081" transform="scale(0.25 0.25)" d="M333.356 574.642C346.294 574.001 361.658 574.382 374.781 574.399L445.84 574.474C463.564 574.473 687.167 573.647 690.275 574.887L690.487 576.06C686.661 573.387 675.863 576.181 671.584 576.566C669.992 576.709 667.362 575.204 664.719 575.209C625.195 575.288 585.636 575.154 546.115 575.287C546.995 576.007 574.876 575.29 576.691 576.751C576.102 576.943 556.462 577.179 554.979 577.018C545.786 576.02 496.244 578.6 491.726 576.317C492.397 575.77 492.536 575.868 492.723 575.266L426.233 575.27C410.884 575.272 395.764 574.235 380.663 576.751C379.268 576.983 373.175 575.243 370.569 575.071C360.142 574.384 343.218 576.686 333.356 574.642Z"/><path fill="#71D294" transform="scale(0.25 0.25)" d="M554.069 678.736C561.985 678.707 569.9 678.787 577.814 678.973C576.642 684.054 576.779 684.615 572.943 688.478C563.953 694.312 551.304 688.583 552.874 679.18L554.069 678.736Z"/><path fill="#71D294" transform="scale(0.25 0.25)" d="M447.261 678.71C454.964 678.707 462.875 678.614 470.554 678.886C469.857 683.283 469.567 684.409 466.825 687.878C462.376 691.421 460.211 691.18 454.776 690.99C451.595 689.178 442.715 682.905 447.261 678.71Z"/><path fill="#1C222C" transform="scale(0.25 0.25)" d="M168.549 734.736C189.433 733.588 205.017 729.072 220.729 714.554C225.874 710.012 228.592 701.691 235.815 700.174C244.13 698.427 248.93 707.617 254.354 712.985C283.495 741.828 331.26 741.779 359.683 711.86C363.8 707.526 366.687 700.765 373.055 700.071C380.155 699.059 385.591 707.591 390.019 712.193C392.903 715.244 396.062 718.022 399.456 720.493C425.117 739.281 460.015 739.194 485.582 720.279C488.547 718.06 491.376 715.567 493.953 712.905C498.962 707.731 501.374 700.729 509.292 699.92C515.244 699.313 520.629 707.35 524.383 711.35C526.646 713.795 529.103 716.051 531.731 718.097C561.883 741.637 601.961 740 629.599 712.837C634.391 708.127 637.593 700.18 645.176 699.822C650.865 699.553 655.024 705.778 658.482 709.53C685.797 741.026 735.374 743.142 765.023 713.606C770.761 707.89 773.945 699.168 783.145 699.729C788.479 700.055 794.069 708.632 797.612 712.113C814.319 728.53 832.008 734.097 855.007 734.588C855.238 741.166 855.065 748.689 855.065 755.337C855.107 761.843 855.255 768.73 855.104 775.198C854.675 784.87 855.059 797.009 854.951 806.953C846.305 807.429 835.407 807.121 826.565 807.122L773.744 807.118L605.588 807.082L319.204 807.069L168.891 806.951L168.791 775.11C168.501 772.379 168.714 764.41 168.713 761.345C168.712 752.475 168.657 743.605 168.549 734.736Z"/><path fill="#2E3747" transform="scale(0.25 0.25)" d="M374.184 749.015C406.4 780.408 459.922 783.996 497.248 759.321C502.077 756.128 505.79 752.746 509.989 748.833C545.799 783.513 609.861 784.658 645.063 748.876C657.477 759.895 670.141 767.759 686.361 771.968C719.585 780.589 756.814 773.417 781.703 749.12C804.989 768.838 824.713 775.128 855.104 775.198C854.675 784.87 855.059 797.009 854.951 806.953C846.305 807.429 835.407 807.121 826.565 807.122L773.744 807.118L605.588 807.082L319.204 807.069L168.891 806.951L168.791 775.11C194.368 774.762 218.692 768.392 237.147 749.578L237.68 749.029C241.055 751.884 244.234 754.428 247.837 757.015C284.257 783.166 341.754 781.961 374.184 749.015Z"/><path fill="#6AA081" transform="scale(0.25 0.25)" d="M782.107 726.643C798.869 746.735 829.451 757.046 855.065 755.337C855.107 761.843 855.255 768.73 855.104 775.198C824.713 775.128 804.989 768.838 781.703 749.12C756.814 773.417 719.585 780.589 686.361 771.968C670.141 767.759 657.477 759.895 645.063 748.876C609.861 784.658 545.799 783.513 509.989 748.833C505.79 752.746 502.077 756.128 497.248 759.321C459.922 783.996 406.4 780.408 374.184 749.015C341.754 781.961 284.257 783.166 247.837 757.015C244.234 754.428 241.055 751.884 237.68 749.029L237.147 749.578C218.692 768.392 194.368 774.762 168.791 775.11C169.065 769.24 168.877 761.772 168.892 755.779C170.427 755.845 171.963 755.857 173.499 755.816C199.184 754.949 220.866 745.558 238.366 726.788C273.847 765.743 338.563 765.429 374.435 727.111C375.86 728.67 377.329 730.188 378.84 731.664C399.915 752.043 432.006 759.538 460.33 754.266C480.495 750.512 496.128 741.573 510.183 726.954C511.794 729.052 514.303 731.326 516.281 733.102C552.332 765.478 613 762.91 645.259 726.953C646.37 728.132 647.498 729.293 648.645 730.437C665.832 747.482 690.507 756.261 714.473 755.929C742.208 755.545 762.878 746.116 782.107 726.643Z"/><path fill="#2E3747" transform="scale(0.25 0.25)" d="M811.504 328.018C824.355 328.323 835.635 328.69 845.173 338.695C858.399 352.57 855.416 372.409 855.411 390.317L855.364 451.68L855.283 565.112C855.262 584.993 855.317 604.844 855.068 624.77C854.963 633.188 849.849 642.484 843.668 648.437C830.387 661.227 812.102 657.099 795.433 657.385C786.238 657.543 776.632 652.123 770.687 645.522C766.398 641.038 761.341 628.766 760.845 622.953C763.423 620.564 765.583 614.902 761.915 612.351C761.46 605.208 761.837 596.787 761.781 589.455C761.624 571.818 761.56 554.181 761.589 536.544L761.533 391.901L762.041 392.977L762.829 392.987C763.914 390.584 762.179 382.015 761.219 379.351C762.269 367.011 759.982 357.21 767.531 346.567C784.025 346.25 799.766 339.609 811.504 328.018Z"/><path fill="#2E3747" transform="scale(0.25 0.25)" d="M262.9 624.531C258.823 633.058 259.156 638.176 252.273 645.806C240.296 659.083 227.854 657.208 211.99 657.482C194.237 657.789 180.216 654.304 172.18 636.991C169.53 631.298 168.877 627.914 168.852 621.411C168.776 601.415 168.844 581.403 168.865 561.399L168.871 446.854L168.752 388.223C168.726 379.104 168.367 367.62 169.084 358.715C169.551 352.926 174.923 343.105 179.227 338.823C189.294 328.809 199.113 328.527 212.187 328.211C223.907 339.721 239.587 346.31 256.011 346.625C260.639 352.223 262.038 359.71 262.14 366.749C261.963 370.502 261.01 389.976 261.845 392.445C262.548 404.541 262.028 420.86 262.022 433.443L262.006 509.521L262.011 577.502C262.014 582.182 262.452 609.107 261.446 612.23C258.033 615.438 260.048 622.827 262.9 624.531Z"/><path fill="#1C222C" transform="scale(0.25 0.25)" d="M767.531 346.567C736.688 347.16 709.765 325.778 703.358 295.602C696.952 265.426 712.865 234.949 741.288 222.959C769.711 210.969 802.644 220.841 819.786 246.488C836.928 272.136 833.453 306.341 811.504 328.018C799.766 339.609 784.025 346.25 767.531 346.567Z"/><path fill="#71D294" transform="scale(0.25 0.25)" d="M761.109 246.756C780.706 243.893 798.902 257.49 801.712 277.094C804.521 296.699 790.876 314.859 771.264 317.616C751.726 320.362 733.651 306.78 730.852 287.25C728.053 267.719 741.586 249.607 761.109 246.756Z"/><path fill="#1C222C" transform="scale(0.25 0.25)" d="M212.187 328.211C190.176 306.594 186.617 272.392 203.706 246.706C220.795 221.021 253.717 211.09 282.159 223.041C310.601 234.992 326.549 265.458 320.163 295.64C313.777 325.823 286.856 347.218 256.011 346.625C239.587 346.31 223.907 339.721 212.187 328.211Z"/><path fill="#71D294" transform="scale(0.25 0.25)" d="M251.856 246.762C271.469 243.677 289.857 257.113 292.876 276.736C295.896 296.359 282.399 314.702 262.765 317.656C243.225 320.595 224.988 307.176 221.983 287.645C218.978 268.115 232.336 249.834 251.856 246.762Z"/><path fill="#1C222C" transform="scale(0.25 0.25)" d="M694.471 641.927C707.449 642.127 717.31 638.482 725.659 650.406C728.243 653.261 729.881 655.939 732.177 658.728C740.774 660.023 755.206 660.406 761.339 667.315C764.787 671.197 761.62 676.272 757.564 678.342C751.885 681.238 745.802 683.016 739.525 684.258C732.23 685.732 730.201 685.269 725.555 691.492C719.444 703.324 708.67 699.284 698.046 699.942C678.546 701.15 673.296 698.13 674.757 677.633C675.104 672.757 674.041 666.514 675.408 661.545C680.782 658.59 689.353 646.745 694.471 641.927Z"/><defs><linearGradient id="gradient_2" gradientUnits="userSpaceOnUse" x1="695.79413" y1="660.70648" x2="757.24359" y2="683.48328"><stop offset="0" stop-color="#465060"/><stop offset="1" stop-color="#5C6679"/></linearGradient></defs><path fill="url(#gradient_2)" transform="scale(0.25 0.25)" d="M725.659 650.406C728.243 653.261 729.881 655.939 732.177 658.728C740.774 660.023 755.206 660.406 761.339 667.315C764.787 671.197 761.62 676.272 757.564 678.342C751.885 681.238 745.802 683.016 739.525 684.258C732.23 685.732 730.201 685.269 725.555 691.492C724.832 690.539 724.896 690.433 724.549 689.253C721.467 678.779 702.079 680.944 694.466 681.042C694.567 674.342 694.585 667.64 694.522 660.939C702.26 660.725 709.938 661.087 717.647 660.73C723.143 657.401 723.71 656.247 725.659 650.406Z"/><path fill="#4D5668" transform="scale(0.25 0.25)" d="M677.592 403.186C698.96 395.946 720.106 385.793 741.172 377.597C746.428 375.552 751.609 373.786 756.779 371.497C757.81 373.948 759.162 378.064 761.219 379.351C762.179 382.015 763.914 390.584 762.829 392.987L762.041 392.977L761.533 391.901C745.266 397.807 727.528 406.992 711.055 412.983C706.452 414.657 697.22 418.873 692.686 419.801C691.998 419.275 692.118 419.443 691.623 418.783C687.379 413.124 682.346 408.343 677.592 403.186Z"/><path fill="#4D5668" transform="scale(0.25 0.25)" d="M262.14 366.749C262.529 371.728 262.48 376.782 262.509 381.781C263.953 377.893 265.143 374.582 267.003 370.856C271.949 372.982 276.78 375.301 281.72 377.478C302.295 386.544 325.161 393.887 345.47 403.411C342.314 406.358 332.014 418.999 330.399 420.043C320.69 416.6 264.841 391.733 261.845 392.445C261.01 389.976 261.963 370.502 262.14 366.749Z"/><path fill="#4D5668" transform="scale(0.25 0.25)" d="M315.683 601.142C317.522 611.266 317.132 612.001 320.148 621.766C302.157 625.287 283.782 628.583 265.951 632.435C265.126 629.537 264.461 627.102 263.347 624.295L262.9 624.531C260.048 622.827 258.033 615.438 261.446 612.23C265.768 611.615 271.986 610.133 276.615 609.323L304.391 604.387C307.016 603.925 313.348 603.24 315.332 602.329L315.683 601.142Z"/><path fill="#4D5668" transform="scale(0.25 0.25)" d="M707.934 602.863C720.337 604.285 750.537 609.288 761.915 612.351C765.583 614.902 763.423 620.564 760.845 622.953C759.055 624.256 758.275 629.448 757.788 631.727C740.904 629.532 720.47 625.567 703.647 621.987C705.974 615.332 706.052 609.328 707.934 602.863Z"/></svg>